<svg width="121" height="121" viewBox="0 0 121 121" fill="none" xmlns="http://www.w3.org/2000/svg">
<path d="M95.7937 85.1582C92.6182 89.6934 85.3324 89.8789 80.9342 92.6776C76.5361 95.4762 73.0766 102.044 67.8376 102.968C62.5986 103.892 57.2869 98.9465 52.0114 97.7774C46.7359 96.6083 40.0115 98.9693 35.4763 95.7937C30.9411 92.6181 30.7556 85.3324 27.9569 80.9343C25.1582 76.5361 18.5904 73.0767 17.6666 67.8377C16.7428 62.5987 21.6879 57.287 22.857 52.0115C24.0261 46.736 21.6651 40.0116 24.8407 35.4764C28.0163 30.9412 35.302 30.7557 39.7002 27.957C44.0984 25.1584 47.5578 18.5906 52.7968 17.6668C58.0358 16.743 63.3475 21.6881 68.623 22.8572C73.8985 24.0263 80.623 21.6653 85.1582 24.8409C89.6934 28.0165 89.8789 35.3022 92.6776 39.7004C95.4762 44.0985 102.044 47.5579 102.968 52.7969C103.892 58.0359 98.9465 63.3476 97.7774 68.6231C96.6518 73.7132 98.9693 80.623 95.7937 85.1582Z" fill="#303A4D"/>
<path d="M53.8827 51.9685L54.443 50.4291L51.1917 49.2457L51.8685 47.386L55.4401 48.6859L56.0318 47.0602L50.6868 45.1148L47.9972 52.5043L49.7707 53.1498L50.6313 50.7851L53.8827 51.9685Z" fill="#F4F2E6"/>
<path d="M59.8581 50.1405C60.7448 50.4633 60.9866 50.872 60.7356 51.5617C60.4845 52.2514 60.003 52.4248 59.1409 52.1111L57.8108 51.6269L58.528 49.6564L59.8581 50.1405ZM59.0657 56.5329L61.1347 57.286L61.184 57.1505L60.2467 53.8246C61.3082 53.8204 62.1067 53.2742 62.5191 52.1412C63.1019 50.5401 62.4203 49.3855 60.5237 48.6951L57.2846 47.5162L54.595 54.9057L56.3808 55.5557L57.3087 53.0063L58.4295 53.4142L59.0657 56.5329Z" fill="#F4F2E6"/>
<path d="M62.2275 57.6837L67.8066 59.7143L68.3669 58.1748L64.5736 56.7942L65.1205 55.2917L68.6182 56.5647L69.1202 55.1853L65.6225 53.9123L66.1425 52.4837L69.9481 53.8688L70.5085 52.3293L64.9171 50.2942L62.2275 57.6837Z" fill="#F4F2E6"/>
<path d="M69.2586 60.2428L74.8377 62.2734L75.398 60.7339L71.6047 59.3533L72.1516 57.8508L75.6493 59.1238L76.1513 57.7445L72.6536 56.4714L73.1736 55.0428L76.9792 56.4279L77.5396 54.8884L71.9482 52.8533L69.2586 60.2428Z" fill="#F4F2E6"/>
<path d="M33.0257 58.6217C35.1933 59.4107 36.4307 58.8848 36.9462 57.4684C37.3362 56.397 37.1574 55.3556 35.0146 54.1154C33.6554 53.3278 33.5581 52.9437 33.715 52.5126C33.8853 52.0446 34.3534 51.9082 35.1417 52.195C36.0284 52.5178 36.185 53.0072 36.084 53.8212L37.9707 54.1174C38.223 52.7726 37.7374 51.5777 35.7299 50.8471C33.7101 50.1119 32.4368 50.5829 31.9303 51.9746C31.4865 53.1939 31.8233 54.223 33.7511 55.2874C35.07 56.0324 35.3039 56.4244 35.1156 56.9416C34.9453 57.4096 34.4402 57.5326 33.6151 57.2323C32.7037 56.9006 32.2235 56.2656 32.3738 55.3161L30.5566 55.0591C30.2505 56.3982 30.6655 57.7488 33.0257 58.6217Z" fill="#F4F2E6"/>
<path d="M44.0898 62.4535L46.7793 55.064L45.0058 54.4185L43.9435 57.3373L40.8768 56.2212L41.9392 53.3023L40.1657 52.6568L37.4762 60.0463L39.2496 60.6918L40.2986 57.8099L43.3652 58.9261L42.3163 61.808L44.0898 62.4535Z" fill="#F4F2E6"/>
<path d="M47.4353 63.6712L50.1249 56.2817L48.3514 55.6362L45.6619 63.0257L47.4353 63.6712Z" fill="#F4F2E6"/>
<path d="M54.0742 59.4207C55.0348 59.7703 55.2497 60.253 54.9673 61.0289C54.6849 61.8048 54.1809 62.0398 53.2695 61.7081L52.0995 61.2822L52.9288 59.0038L54.0742 59.4207ZM52.9421 63.2207C54.7649 63.8842 56.1917 63.1064 56.7161 61.6654C57.3482 59.9289 56.7394 58.6891 54.7812 57.9764L51.7022 56.8558L49.0126 64.2453L50.7861 64.8907L51.5751 62.7232L52.9421 63.2207Z" fill="#F4F2E6"/>
<path d="M61.1534 61.9973C62.114 62.3469 62.3289 62.8296 62.0465 63.6055C61.7641 64.3814 61.2601 64.6164 60.3488 64.2847L59.1787 63.8588L60.008 61.5804L61.1534 61.9973ZM60.0213 65.7974C61.8441 66.4608 63.2709 65.683 63.7953 64.242C64.4274 62.5055 63.8186 61.2658 61.8604 60.553L58.7814 59.4324L56.0919 66.8219L57.8653 67.4674L58.6543 65.2998L60.0213 65.7974Z" fill="#F4F2E6"/>
<path d="M64.9446 70.044L67.6341 62.6545L65.8606 62.009L63.1711 69.3985L64.9446 70.044Z" fill="#F4F2E6"/>
<path d="M70.9063 72.2139L73.2586 73.0701L75.9482 65.6806L74.3102 65.0844L73.4809 67.3628C73.1626 68.2372 72.7535 69.5528 72.4498 70.6557L72.2437 70.6086C72.2709 69.6143 72.24 68.1664 72.1037 67.0847L71.7115 64.1386L69.1991 63.2241L66.5095 70.6136L68.1599 71.2143L68.9712 68.9851C69.2984 68.0861 69.7938 66.495 70.1189 65.372L70.3249 65.4191C70.3246 66.493 70.3813 67.9083 70.4661 68.7482L70.9063 72.2139Z" fill="#F4F2E6"/>
<path d="M77.3937 74.7146C78.7115 75.1942 79.6869 74.6985 80.3657 73.8297L80.5135 73.8835L79.9263 75.4969L81.552 76.0886L83.0133 72.0737L79.5772 70.823L79.0976 72.1408L80.8711 72.7863C80.62 73.476 80.0242 74.0402 78.6448 73.5381C77.2777 73.0405 77.0698 72.0025 77.5897 70.5738C78.1456 69.0467 78.961 68.3392 80.3034 68.8278C81.3133 69.1954 81.5617 69.8158 81.4651 70.7709L83.2578 71.0189C83.5628 69.261 82.8958 68.028 80.876 67.2929C78.4621 66.4143 76.7049 67.4484 75.8039 69.9239C74.9029 72.3993 75.7064 74.1005 77.3937 74.7146Z" fill="#F4F2E6"/>
<path d="M85.9597 74.3873L84.4941 73.8539L86.3244 67.8672L88.4058 68.6248L85.9597 74.3873ZM83.413 75.7896C83.5504 75.4119 83.7487 75.1866 84.0078 75.1135C84.2698 75.0322 84.5486 75.0453 84.8442 75.1529C85.1316 75.2575 85.3495 75.4252 85.498 75.6559C85.6494 75.8784 85.6564 76.1785 85.519 76.5562C85.3875 76.9174 85.1892 77.1428 84.9242 77.2323C84.6622 77.3136 84.3874 77.3019 84.1001 77.1973C83.8045 77.0898 83.5825 76.9206 83.434 76.6899C83.2885 76.451 83.2815 76.1509 83.413 75.7896Z" fill="#F4F2E6"/>
</svg>
